<svg width="156" height="156" viewBox="0 0 156 156" fill="none" xmlns="http://www.w3.org/2000/svg">
<path d="M80.4437 15.6609C79.8351 15.6069 79.2174 15.6076 78.5973 15.6731C76.1106 15.9446 73.8809 17.1692 72.3146 19.1161C69.0792 23.1378 69.7219 29.0431 73.7467 32.2786L84.0451 40.56H31.0782C25.9177 40.56 21.7182 44.7595 21.7182 49.92C21.7182 55.0805 25.9177 59.28 31.0782 59.28H54.2771L9.8476 95.1905C7.82896 96.8222 6.5695 99.1427 6.29494 101.723C6.0235 104.303 6.76552 106.84 8.39728 108.859C10.029 110.877 12.3495 112.137 14.9298 112.411C17.51 112.683 20.0469 111.941 22.0656 110.309L43.674 92.8444C45.4805 117.62 68.5276 137.28 96.5982 137.28C125.845 137.28 149.638 115.936 149.638 89.7C149.638 73.4885 140.562 58.5666 125.342 49.7433L85.4771 17.6902C84.0146 16.5155 82.2695 15.823 80.4437 15.6609ZM96.5982 62.4C112.08 62.4 124.678 72.8957 124.678 85.8C124.678 98.7043 112.08 109.2 96.5982 109.2C81.1168 109.2 68.5182 98.7043 68.5182 85.8C68.5182 72.8957 81.1168 62.4 96.5982 62.4ZM96.5982 68.64C91.6334 68.64 86.8719 70.2836 83.3612 73.2091C79.8505 76.1347 77.8782 80.1026 77.8782 84.24C77.8782 88.3774 79.8505 92.3453 83.3612 95.2709C86.8719 98.1964 91.6334 99.84 96.5982 99.84C101.563 99.84 106.325 98.1964 109.835 95.2709C113.346 92.3453 115.318 88.3774 115.318 84.24C115.318 80.1026 113.346 76.1347 109.835 73.2091C106.325 70.2836 101.563 68.64 96.5982 68.64V68.64Z" fill="white"/>
</svg>
