<svg width="110" height="134" viewBox="0 0 110 134" fill="none" xmlns="http://www.w3.org/2000/svg">
<path d="M0 134V114.236H3.92857C3.92857 117.135 4.77976 119.506 6.48214 121.351C8.18452 123.196 10.6071 124.118 13.75 124.118H35.3571V109.097C27.7619 108.043 19.9702 102.773 11.9821 93.2861C3.99405 83.7994 0 70.8869 0 54.5487C0 37.9469 4.91071 24.705 14.7321 14.823C24.5536 4.941 37.9762 0 55 0C70.7143 0 83.8095 4.941 94.2857 14.823C104.762 24.705 110 37.9469 110 54.5487C110 70.8869 105.875 83.9971 97.625 93.8791C89.375 103.761 81.7143 108.834 74.6429 109.097V124.118H96.25C99.9167 124.118 102.47 123.327 103.911 121.746C105.351 120.165 106.071 117.53 106.071 113.841L110 114.236V134H64.8214V99.2153C72.1548 97.8977 78.244 93.9449 83.0893 87.3569C87.9345 80.7689 90.3571 69.8328 90.3571 54.5487C90.3571 41.1091 86.756 30.3048 79.5536 22.1357C72.3512 13.9666 64.1667 9.88201 55 9.88201C45.5714 9.88201 37.3214 13.9666 30.25 22.1357C23.1786 30.3048 19.6429 41.1091 19.6429 54.5487C19.6429 69.8328 21.869 80.6372 26.3214 86.9617C30.7738 93.2861 37.0595 97.3707 45.1786 99.2153V134H0Z" fill="white"/>
</svg>
