<svg width="157" height="56" viewBox="0 0 157 56" fill="none" xmlns="http://www.w3.org/2000/svg">
<path d="M0 27.5175V23.4588H0.816433C0.816433 24.0541 0.993326 24.5411 1.34711 24.92C1.7009 25.2988 2.20437 25.4882 2.85751 25.4882H7.34789V22.4036C5.76946 22.1871 4.1502 21.1048 2.49012 19.1567C0.83004 17.2086 0 14.5569 0 11.2018C0 7.79256 1.02054 5.07328 3.06162 3.04397C5.1027 1.01466 7.89218 0 11.4301 0C14.6958 0 17.4172 1.01466 19.5944 3.04397C21.7715 5.07328 22.8601 7.79256 22.8601 11.2018C22.8601 14.5569 22.0029 17.2492 20.2884 19.2785C18.5738 21.3078 16.9818 22.3495 15.5122 22.4036V25.4882H20.0026C20.7646 25.4882 21.2953 25.3258 21.5946 25.0011C21.894 24.6764 22.0437 24.1353 22.0437 23.3777L22.8601 23.4588V27.5175H13.4711V20.3743C14.9951 20.1037 16.2606 19.292 17.2676 17.9391C18.2745 16.5862 18.778 14.3405 18.778 11.2018C18.778 8.44194 18.0296 6.22322 16.5328 4.54566C15.036 2.86809 13.3351 2.02931 11.4301 2.02931C9.47062 2.02931 7.75611 2.86809 6.28653 4.54566C4.81695 6.22322 4.08216 8.44194 4.08216 11.2018C4.08216 14.3405 4.54481 16.5592 5.4701 17.8579C6.39539 19.1567 7.70168 19.9955 9.38898 20.3743V27.5175H0Z" fill="white"/>
<path d="M24.0848 27.5175V26.4622C25.0101 26.4622 25.6496 26.3405 26.0034 26.097C26.3572 25.8534 26.5341 25.434 26.5341 24.8388V2.84104C26.5341 2.08343 26.3572 1.59639 26.0034 1.37993C25.6496 1.16347 25.0101 1.05524 24.0848 1.05524V0H33.0655V1.05524C32.1402 1.05524 31.5007 1.16347 31.1469 1.37993C30.7931 1.59639 30.6162 2.08343 30.6162 2.84104V25.4882H39.2704C40.74 25.4882 41.9238 25.0958 42.8219 24.3112C43.72 23.5265 44.3595 22.4036 44.7405 20.9425H46.0468L44.4956 27.5175H24.0848Z" fill="white"/>
<path d="M71.8461 0V1.70462C71.2474 1.70462 70.8527 1.83991 70.6622 2.11048C70.4717 2.38106 70.3765 2.81398 70.3765 3.40924C70.3765 6.22322 69.6145 8.72604 68.0905 10.9177C66.5665 13.1094 64.5798 14.2593 62.1305 14.3675V24.8388C62.1305 25.434 62.3074 25.8534 62.6612 26.097C63.015 26.3405 63.6545 26.4622 64.5798 26.4622V27.5175H55.5991V26.4622C56.5244 26.4622 57.1639 26.3405 57.5177 26.097C57.8715 25.8534 58.0484 25.434 58.0484 24.8388V14.3675C55.2725 14.1511 53.177 12.9605 51.7618 10.7959C50.3467 8.63134 49.6391 6.16911 49.6391 3.40924C49.6527 3.30101 49.6595 3.19955 49.6595 3.10485C49.6595 2.67193 49.5575 2.354 49.3534 2.15107C49.1084 1.90755 48.7138 1.75874 48.1695 1.70462V0H50.6188C51.3264 0 51.8707 0.270575 52.2517 0.811725C52.6327 1.35287 52.8504 2.19166 52.9048 3.32807C52.9048 5.97971 53.3267 8.17136 54.1703 9.90304C55.014 11.6347 56.3066 12.5006 58.0484 12.5006V2.84104C58.0484 2.24577 57.9123 1.79932 57.6401 1.50169C57.368 1.20406 56.6876 1.05524 55.5991 1.05524V0H64.5798V1.05524C63.6001 1.05524 62.947 1.20406 62.6204 1.50169C62.2938 1.79932 62.1305 2.24577 62.1305 2.84104V12.5006C63.6001 12.5006 64.7703 11.5671 65.6412 9.70011C66.512 7.83315 67.0019 5.73619 67.1108 3.40924C67.1108 2.38106 67.274 1.55581 67.6006 0.933484C67.9272 0.311161 68.5259 0 69.3968 0H71.8461Z" fill="white"/>
<path d="M72.7441 27.5175V26.4622C73.6694 26.4622 74.309 26.3405 74.6628 26.097C75.0166 25.8534 75.1935 25.434 75.1935 24.8388V2.84104C75.1935 2.08343 75.0166 1.59639 74.6628 1.37993C74.309 1.16347 73.6694 1.05524 72.7441 1.05524V0H78.3775L89.0728 17.0462L99.6048 0H105.891V1.05524C104.966 1.05524 104.326 1.16347 103.973 1.37993C103.619 1.59639 103.442 2.08343 103.442 2.84104V24.8388C103.442 25.434 103.619 25.8534 103.973 26.097C104.326 26.3405 104.966 26.4622 105.891 26.4622V27.5175H96.9106V26.4622C97.8358 26.4622 98.4754 26.3405 98.8292 26.097C99.183 25.8534 99.3599 25.434 99.3599 24.8388V3.89628L90.1342 18.6697L88.2564 21.7542L77.2345 3.89628V24.8388C77.2345 25.434 77.4114 25.8534 77.7652 26.097C78.119 26.3405 78.7585 26.4622 79.6838 26.4622V27.5175H72.7441Z" fill="white"/>
<path d="M106.708 27.5175V26.4622C107.633 26.4622 108.273 26.3405 108.626 26.097C108.98 25.8534 109.157 25.434 109.157 24.8388V2.84104C109.157 2.08343 108.98 1.59639 108.626 1.37993C108.273 1.16347 107.633 1.05524 106.708 1.05524V0H115.689C118.464 0 120.75 0.473506 122.547 1.42052C124.343 2.36753 125.241 4.35626 125.241 7.3867C125.241 10.1466 124.438 12.0676 122.832 13.1499C121.227 14.2322 119.362 14.7734 117.24 14.7734H113.239V24.8388C113.239 25.434 113.416 25.8534 113.77 26.097C114.124 26.3405 114.763 26.4622 115.689 26.4622V27.5175H106.708ZM113.239 12.7441H116.832C118.41 12.7441 119.512 12.3112 120.138 11.4453C120.764 10.5795 121.077 9.06426 121.077 6.89966C121.077 4.89741 120.682 3.58512 119.893 2.9628C119.104 2.34047 117.784 2.02931 115.933 2.02931H113.239V12.7441Z" fill="white"/>
<path d="M143.121 0C146.917 0 150.176 1.34611 152.897 4.03833C155.632 6.73055 157 9.9301 157 13.637C157 17.3439 155.632 20.584 152.897 23.3574C150.176 26.1308 146.917 27.5175 143.121 27.5175C139.229 27.5175 135.956 26.1308 133.303 23.3574C130.65 20.584 129.323 17.3439 129.323 13.637C129.323 9.80834 130.65 6.58174 133.303 3.95716C135.956 1.31905 139.229 0 143.121 0ZM142.304 2.02931C139.855 2.29989 137.705 3.531 135.854 5.72266C134.194 7.68433 133.364 10.2616 133.364 13.4543C133.364 13.8331 133.378 14.2187 133.405 14.611C133.677 17.5874 134.752 20.1308 136.63 22.2413C138.508 24.3517 140.943 25.434 143.937 25.4882C146.876 25.2717 149.135 24.1082 150.713 21.9977C152.197 20.0225 152.938 17.2694 152.938 13.7384C152.938 13.4949 152.931 13.2446 152.918 12.9876C152.646 9.95716 151.53 7.34611 149.57 5.15445C147.706 3.07103 145.42 2.02931 142.712 2.02931C142.576 2.02931 142.44 2.02931 142.304 2.02931ZM136.426 9.65953H137.487C137.487 10.3089 137.651 10.8095 137.977 11.1612C138.304 11.513 138.821 11.6888 139.528 11.6888H146.713C147.475 11.6347 148.006 11.4588 148.305 11.1612C148.604 10.8636 148.754 10.363 148.754 9.65953H149.815V17.7768H148.754C148.754 17.1815 148.591 16.6945 148.264 16.3157C147.938 15.9369 147.421 15.7475 146.713 15.7475H139.528C138.821 15.7475 138.317 15.9233 138.018 16.2751C137.719 16.6268 137.542 17.1274 137.487 17.7768H136.426V9.65953Z" fill="white"/>
<path d="M22.6787 52.9154V52.2119C23.2955 52.2119 23.7219 52.1308 23.9578 51.9684C24.1936 51.8061 24.3116 51.5265 24.3116 51.1296V36.4645C24.3116 35.9594 24.1936 35.6347 23.9578 35.4904C23.7219 35.3461 23.2955 35.274 22.6787 35.274V34.5705H28.6659C30.5164 34.5705 32.0404 34.8861 33.2379 35.5175C34.4353 36.1488 35.034 37.4746 35.034 39.4949C35.034 41.3348 34.4988 42.6156 33.4284 43.3371C32.3579 44.0586 31.1152 44.4194 29.7 44.4194H27.033V51.1296C27.033 51.5265 27.1509 51.8061 27.3868 51.9684C27.6226 52.1308 28.049 52.2119 28.6659 52.2119V52.9154H22.6787ZM27.033 43.0665H29.4279C30.4802 43.0665 31.2149 42.7779 31.6322 42.2007C32.0495 41.6234 32.2582 40.6133 32.2582 39.1702C32.2582 37.8354 31.9951 36.9605 31.4689 36.5457C30.9428 36.1308 30.0629 35.9233 28.8291 35.9233H27.033V43.0665Z" fill="white"/>
<path d="M36.6669 52.9154V52.2119C37.2838 52.2119 37.7101 52.1308 37.946 51.9684C38.1818 51.8061 38.2998 51.5265 38.2998 51.1296V36.4645C38.2998 35.9594 38.1818 35.6347 37.946 35.4904C37.7101 35.3461 37.2838 35.274 36.6669 35.274V34.5705H42.6541C44.5047 34.5705 46.0287 34.8861 47.2261 35.5175C48.4235 36.1488 49.0222 37.4746 49.0222 39.4949C49.0222 41.3348 48.5505 42.6246 47.6071 43.3641C46.709 44.0676 45.9379 44.4194 45.2939 44.4194C45.2667 44.4194 45.2394 44.4194 45.2122 44.4194L47.5527 47.4498L49.3488 45.0688H50.8728L48.3147 48.5321L50.6007 51.2379C50.9635 51.5626 51.272 51.7971 51.526 51.9414C51.78 52.0857 52.1791 52.1759 52.7234 52.2119V52.9154H46.8995V52.2119C47.4075 52.2119 47.7432 52.1218 47.9065 51.9414C47.97 51.8692 48.0017 51.7835 48.0017 51.6843C48.0017 51.531 47.9246 51.3461 47.7704 51.1296L47.0628 50.1015L45.0489 52.9154H43.7426L46.2464 49.2356L42.4908 44.4194H41.0212V51.1296C41.0212 51.5265 41.1391 51.8061 41.375 51.9684C41.6109 52.1308 42.0372 52.2119 42.6541 52.2119V52.9154H36.6669ZM41.0212 43.0665H43.4161C44.4684 43.0665 45.2032 42.7779 45.6204 42.2007C46.0377 41.6234 46.2464 40.6133 46.2464 39.1702C46.2464 37.8354 45.9833 36.9605 45.4572 36.5457C44.931 36.1308 44.0511 35.9233 42.8174 35.9233H41.0212V43.0665Z" fill="white"/>
<path d="M63.6092 34.5705C66.1401 34.5705 68.3127 35.4679 70.127 37.2627C71.9504 39.0575 72.8621 41.1905 72.8621 43.6618C72.8621 46.133 71.9504 48.2931 70.127 50.142C68.3127 51.991 66.1401 52.9154 63.6092 52.9154C61.0147 52.9154 58.833 51.991 57.0641 50.142C55.2952 48.2931 54.4107 46.133 54.4107 43.6618C54.4107 41.1094 55.2952 38.9583 57.0641 37.2086C58.833 35.4498 61.0147 34.5705 63.6092 34.5705ZM63.0649 35.9233C61.432 36.1037 59.9987 36.9245 58.765 38.3856C57.6583 39.6933 57.1049 41.4115 57.1049 43.54C57.1049 43.7926 57.114 44.0496 57.1321 44.3112C57.3136 46.2954 58.0302 47.991 59.2821 49.398C60.5339 50.805 62.1577 51.5265 64.1535 51.5626C66.1129 51.4183 67.6188 50.6426 68.6711 49.2356C69.6599 47.9188 70.1542 46.0834 70.1542 43.7294C70.1542 43.5671 70.1497 43.4002 70.1406 43.2289C69.9592 41.2086 69.2153 39.4679 67.9091 38.0068C66.6663 36.6178 65.1423 35.9233 63.337 35.9233C63.2463 35.9233 63.1556 35.9233 63.0649 35.9233ZM59.146 41.0101H59.8536C59.8536 41.4431 59.9624 41.7768 60.1802 42.0113C60.3979 42.2458 60.7426 42.363 61.2143 42.363H66.004C66.512 42.3269 66.8658 42.2097 67.0654 42.0113C67.265 41.8129 67.3648 41.4791 67.3648 41.0101H68.0723V46.4216H67.3648C67.3648 46.0248 67.2559 45.7001 67.0382 45.4476C66.8205 45.195 66.4758 45.0688 66.004 45.0688H61.2143C60.7426 45.0688 60.4069 45.186 60.2074 45.4205C60.0078 45.655 59.8899 45.9887 59.8536 46.4216H59.146V41.0101Z" fill="white"/>
<path d="M74.4949 55.3506C75.1844 54.9898 75.6289 54.5299 75.8285 53.9707C76.028 53.4115 76.1278 52.4645 76.1278 51.1296V36.4645C76.1278 35.9594 76.0099 35.6347 75.774 35.4904C75.5382 35.3461 75.1118 35.274 74.4949 35.274V34.5705H80.4821V35.274C79.8653 35.274 79.4389 35.3461 79.203 35.4904C78.9672 35.6347 78.8493 35.9594 78.8493 36.4645V51.1296C78.8493 52.4284 78.4864 53.4656 77.7607 54.2413C77.035 55.0169 75.9464 55.6032 74.4949 56V55.3506Z" fill="white"/>
<path d="M81.2986 52.9154V52.2119L89.7895 43.7159L81.2986 35.274V34.5705H95.7222V37.7632H95.0146C94.9783 37.1499 94.8332 36.69 94.5792 36.3833C94.3252 36.0767 93.8353 35.9233 93.1096 35.9233H85.7617L92.7286 42.8501L85.3263 50.2097H92.783C93.5813 50.2097 94.1528 50.0383 94.4975 49.6956C94.8423 49.3529 95.0146 48.8929 95.0146 48.3157H95.7222V52.9154H81.2986Z" fill="white"/>
<path d="M98.1715 43.77C98.1715 41.3168 98.7702 39.2153 99.9676 37.4656C101.165 35.7159 102.925 34.7508 105.247 34.5705C105.583 34.5524 105.905 34.5434 106.213 34.5434C106.993 34.5434 107.715 34.6065 108.377 34.7328C109.302 34.9132 109.928 35.1297 110.255 35.3822C110.445 35.4904 110.604 35.5445 110.731 35.5445C110.813 35.5445 110.881 35.5175 110.935 35.4634C111.035 35.3641 111.085 35.1657 111.085 34.8681C111.085 34.7779 111.08 34.6787 111.071 34.5705H111.942L113.303 39.3326H112.486C111.398 37.7452 110.3 36.726 109.193 36.2751C108.449 35.9684 107.583 35.8151 106.594 35.8151C106.114 35.8151 105.61 35.8512 105.084 35.9233C103.633 36.2119 102.517 37.3393 101.737 39.3055C101.129 40.8388 100.825 42.2458 100.825 43.5265C100.825 43.8873 100.848 44.239 100.893 44.5817C101.074 46.6381 101.546 48.2796 102.308 49.5062C103.07 50.7328 104.322 51.4183 106.064 51.5626C107.769 51.4904 109.157 51.0755 110.227 50.3179C111.298 49.5603 112.051 48.4059 112.486 46.8546H113.303C112.867 48.9109 111.987 50.4352 110.663 51.4273C109.338 52.4194 107.533 52.9154 105.247 52.9154C103.252 52.9154 101.573 52.1308 100.213 50.5614C98.8519 48.9921 98.1715 46.7283 98.1715 43.77Z" fill="white"/>
<path d="M120.542 52.9154V52.2119C121.159 52.2119 121.585 52.1308 121.821 51.9684C122.057 51.8061 122.175 51.5265 122.175 51.1296V35.9233H118.365C117.711 35.9233 117.203 36.0586 116.841 36.3292C116.478 36.5998 116.169 37.0778 115.915 37.7632H115.099L116.242 34.5705H130.883L132.026 37.7632H131.21C130.956 37.0778 130.647 36.5998 130.285 36.3292C129.922 36.0586 129.396 35.9233 128.706 35.9233H124.896V51.1296C124.896 51.5265 125.014 51.8061 125.25 51.9684C125.486 52.1308 125.912 52.2119 126.529 52.2119V52.9154H120.542Z" fill="white"/>
<path d="M133.877 34.4442H154.777V36.7531H133.877V34.4442Z" fill="white"/>
<path d="M1.50586 34.4442H20.0842V36.7531H1.50586V34.4442Z" fill="white"/>
</svg>
