<svg width="144" height="144" viewBox="0 0 144 144" fill="none" xmlns="http://www.w3.org/2000/svg">
<path d="M25.5 21C16.4407 21 9 28.4407 9 37.5V106.5C9 115.559 16.4407 123 25.5 123H118.5C127.559 123 135 115.559 135 106.5V37.5C135 28.4407 127.559 21 118.5 21H25.5ZM25.5 30H118.5C122.695 30 126 33.3053 126 37.5V106.5C126 110.695 122.695 114 118.5 114H25.5C21.3053 114 18 110.695 18 106.5V37.5C18 33.3053 21.3053 30 25.5 30ZM25.5 36C23.844 36 22.5 37.344 22.5 39V42C22.5 43.656 23.844 45 25.5 45H28.5C30.156 45 31.5 43.656 31.5 42V39C31.5 37.344 30.156 36 28.5 36H25.5ZM43.5 36C41.844 36 40.5 37.344 40.5 39V42C40.5 43.656 41.844 45 43.5 45H46.5C48.156 45 49.5 43.656 49.5 42V39C49.5 37.344 48.156 36 46.5 36H43.5ZM61.5 36C59.844 36 58.5 37.344 58.5 39V42C58.5 43.656 59.844 45 61.5 45H64.5C66.156 45 67.5 43.656 67.5 42V39C67.5 37.344 66.156 36 64.5 36H61.5ZM79.5 36C77.844 36 76.5 37.344 76.5 39V42C76.5 43.656 77.844 45 79.5 45H82.5C84.156 45 85.5 43.656 85.5 42V39C85.5 37.344 84.156 36 82.5 36H79.5ZM97.5 36C95.844 36 94.5 37.344 94.5 39V42C94.5 43.656 95.844 45 97.5 45H100.5C102.156 45 103.5 43.656 103.5 42V39C103.5 37.344 102.156 36 100.5 36H97.5ZM115.5 36C113.844 36 112.5 37.344 112.5 39V42C112.5 43.656 113.844 45 115.5 45H118.5C120.156 45 121.5 43.656 121.5 42V39C121.5 37.344 120.156 36 118.5 36H115.5ZM62.2148 54C61.3118 54.0056 60.4114 54.2453 59.6074 54.7148C57.9934 55.6538 57 57.381 57 59.25V84.75C57 86.619 57.9934 88.3462 59.6074 89.2852C60.4234 89.7592 61.335 90 62.25 90C63.144 90 64.033 89.7735 64.834 89.3145L87.334 76.5645C88.981 75.6345 90 73.89 90 72C90 70.11 88.981 68.3655 87.334 67.4355L64.834 54.6855C64.021 54.2235 63.1178 53.9944 62.2148 54ZM25.5 99C23.844 99 22.5 100.344 22.5 102V105C22.5 106.656 23.844 108 25.5 108H28.5C30.156 108 31.5 106.656 31.5 105V102C31.5 100.344 30.156 99 28.5 99H25.5ZM43.5 99C41.844 99 40.5 100.344 40.5 102V105C40.5 106.656 41.844 108 43.5 108H46.5C48.156 108 49.5 106.656 49.5 105V102C49.5 100.344 48.156 99 46.5 99H43.5ZM61.5 99C59.844 99 58.5 100.344 58.5 102V105C58.5 106.656 59.844 108 61.5 108H64.5C66.156 108 67.5 106.656 67.5 105V102C67.5 100.344 66.156 99 64.5 99H61.5ZM79.5 99C77.844 99 76.5 100.344 76.5 102V105C76.5 106.656 77.844 108 79.5 108H82.5C84.156 108 85.5 106.656 85.5 105V102C85.5 100.344 84.156 99 82.5 99H79.5ZM97.5 99C95.844 99 94.5 100.344 94.5 102V105C94.5 106.656 95.844 108 97.5 108H100.5C102.156 108 103.5 106.656 103.5 105V102C103.5 100.344 102.156 99 100.5 99H97.5ZM115.5 99C113.844 99 112.5 100.344 112.5 102V105C112.5 106.656 113.844 108 115.5 108H118.5C120.156 108 121.5 106.656 121.5 105V102C121.5 100.344 120.156 99 118.5 99H115.5Z" fill="white"/>
</svg>
