<svg width="185" height="185" viewBox="0 0 185 185" fill="none" xmlns="http://www.w3.org/2000/svg">
<path d="M92.5 23.125L90.332 24.0283L55.6445 37.9395L52.0312 39.3848V78.2275L20.7764 91.7773L17.3438 93.4033V140.015L20.2344 141.821L54.9219 161.152L57.6318 162.598L60.3418 161.333L92.5 145.254L124.658 161.333L127.368 162.598L130.078 161.152L164.766 141.821L167.656 140.015V93.4033L164.224 91.7773L132.969 78.2275V39.3848L129.355 37.9395L94.668 24.0283L92.5 23.125ZM92.5 35.7715L111.47 43.1787L92.5 50.5859L73.5303 43.1787L92.5 35.7715ZM63.5938 51.6699L86.7188 60.5225V88.7061L63.5938 78.4082V51.6699ZM121.406 51.6699V78.4082L98.2812 88.7061V60.5225L121.406 51.6699ZM57.8125 88.5254L78.7695 97.7393L57.8125 108.037L36.8555 97.5586L57.8125 88.5254ZM127.188 88.5254L148.145 97.5586L127.188 108.037L106.23 97.7393L112.734 94.8486L127.188 88.5254ZM28.9062 106.411L52.0312 117.974V146.338L28.9062 133.33V106.411ZM156.094 106.411V133.33L132.969 146.338V117.974L156.094 106.411ZM86.7188 106.772V135.137L63.5938 146.699V117.974L86.7188 106.772ZM98.2812 106.772L121.406 117.974V146.699L98.2812 135.137V106.772Z" fill="white"/>
</svg>
