<svg width="119" height="119" viewBox="0 0 119 119" fill="none" xmlns="http://www.w3.org/2000/svg">
<path d="M13.0156 0.929688C6.32188 0.929688 0.929688 6.32188 0.929688 13.0156V26.0312V105.984C0.929688 112.678 6.32188 118.07 13.0156 118.07H105.984C112.678 118.07 118.07 112.678 118.07 105.984V13.0156C118.07 6.32188 112.678 0.929688 105.984 0.929688H13.0156ZM13.0156 6.50781H105.984C109.61 6.50781 112.492 9.38984 112.492 13.0156V26.9609H6.50781V13.0156C6.50781 9.38984 9.38984 6.50781 13.0156 6.50781ZM16.7344 13.9453C15.1539 13.9453 13.9453 15.1539 13.9453 16.7344C13.9453 18.3148 15.1539 19.5234 16.7344 19.5234H20.4531C22.0336 19.5234 23.2422 18.3148 23.2422 16.7344C23.2422 15.1539 22.0336 13.9453 20.4531 13.9453H16.7344ZM31.6094 13.9453C30.0289 13.9453 28.8203 15.1539 28.8203 16.7344C28.8203 18.3148 30.0289 19.5234 31.6094 19.5234H35.3281C36.9086 19.5234 38.1172 18.3148 38.1172 16.7344C38.1172 15.1539 36.9086 13.9453 35.3281 13.9453H31.6094ZM6.50781 32.5391H112.492V105.984C112.492 109.61 109.61 112.492 105.984 112.492H13.0156C9.38984 112.492 6.50781 109.61 6.50781 105.984V32.5391ZM67.0301 49.09C65.9319 49.1336 64.939 49.832 64.5207 50.9476L49.1808 92.1317C48.623 93.6192 49.3657 95.2 50.8532 95.7578C51.1321 95.8508 51.3187 95.943 51.5977 95.943C52.8062 96.036 54.0145 95.3867 54.4793 94.1781L69.8192 52.8996C70.377 51.4121 69.6343 49.8313 68.1468 49.2734C67.7749 49.134 67.3962 49.0755 67.0301 49.09ZM76.1999 59.4419C75.491 59.4768 74.7937 59.7793 74.2824 60.3371C73.2597 61.4527 73.352 63.2184 74.4676 64.241L83.3922 72.423L74.4676 80.6032C73.352 81.7188 73.2597 83.4856 74.2824 84.6942C74.8402 85.3449 75.5832 85.6239 76.327 85.6239C76.9778 85.6239 77.6285 85.439 78.1864 84.8812L89.4352 74.5602C89.993 74.0024 90.3649 73.2594 90.3649 72.5156C90.3649 71.7719 89.993 70.9359 89.4352 70.471L78.1864 60.1501C77.6285 59.6387 76.9088 59.407 76.1999 59.4419ZM42.8001 59.5345C42.0912 59.4996 41.3715 59.7331 40.8136 60.2445L29.5648 70.471C29.007 71.0289 28.6351 71.7719 28.6351 72.5156C28.6351 73.2594 29.007 74.0954 29.5648 74.5602L40.8136 84.8812C41.3715 85.346 42.0222 85.6239 42.673 85.6239C43.4168 85.6239 44.1598 85.3449 44.7176 84.6942C45.7403 83.5785 45.648 81.8129 44.5324 80.7902L35.6078 72.5156L44.5324 64.3336C45.648 63.311 45.7403 61.5453 44.7176 60.4297C44.2063 59.8719 43.509 59.5694 42.8001 59.5345Z" fill="white"/>
</svg>
